<svg width="579" height="418" viewBox="0 0 579 418" fill="none" xmlns="http://www.w3.org/2000/svg">
<g clip-path="url(#clip0_3_117)">
<path d="M578.163 414.794H0.836705C0.614797 414.794 0.401977 414.706 0.245065 414.549C0.088152 414.393 0 414.18 0 413.958C0 413.736 0.088152 413.524 0.245065 413.367C0.401977 413.21 0.614797 413.122 0.836705 413.122H578.163C578.385 413.122 578.598 413.21 578.755 413.367C578.912 413.524 579 413.736 579 413.958C579 414.18 578.912 414.393 578.755 414.549C578.598 414.706 578.385 414.794 578.163 414.794Z" fill="#8DC1F0"/>
<path d="M521.02 268.958H181.318C179.875 268.958 178.492 269.531 177.472 270.55C176.452 271.57 175.879 272.952 175.879 274.394C175.879 275.835 176.452 277.218 177.472 278.237C178.492 279.257 179.875 279.829 181.318 279.829H190.94V409.859C190.94 411.301 191.513 412.683 192.533 413.703C193.553 414.722 194.936 415.295 196.378 415.295C197.821 415.295 199.204 414.722 200.224 413.703C201.244 412.683 201.817 411.301 201.817 409.859L201.9 279.829H499.684V409.859C499.684 411.301 500.257 412.683 501.277 413.703C502.297 414.722 503.68 415.295 505.123 415.295C506.565 415.295 507.948 414.722 508.968 413.703C509.988 412.683 510.561 411.301 510.561 409.859V282.695L512.143 279.829H521.02C522.462 279.829 523.846 279.257 524.866 278.237C525.886 277.218 526.459 275.835 526.459 274.394C526.459 272.952 525.886 271.57 524.866 270.55C523.846 269.531 522.462 268.958 521.02 268.958Z" fill="#8DC1F0"/>
<path d="M369.651 271.803H266.752C264.759 271.801 262.849 271.009 261.44 269.601C260.031 268.193 259.239 266.284 259.237 264.292V207.674C259.239 205.682 260.031 203.773 261.44 202.365C262.849 200.957 264.759 200.165 266.752 200.163H369.651C371.644 200.165 373.554 200.957 374.963 202.365C376.372 203.773 377.164 205.682 377.167 207.674V264.292C377.164 266.284 376.372 268.193 374.963 269.601C373.554 271.009 371.644 271.801 369.651 271.803Z" fill="#3F3D56"/>
<path d="M369.651 205.943H266.752C266.293 205.944 265.853 206.127 265.529 206.451C265.204 206.776 265.022 207.216 265.021 207.674V264.294C265.022 264.753 265.204 265.192 265.529 265.517C265.853 265.841 266.293 266.024 266.752 266.025H369.651C370.11 266.024 370.55 265.841 370.874 265.517C371.199 265.192 371.382 264.753 371.383 264.294V207.674C371.382 207.216 371.199 206.776 370.874 206.451C370.55 206.127 370.11 205.944 369.651 205.943Z" fill="#DBEEFF"/>
<path d="M326.978 246.03C326.978 246.03 314.659 243.193 307.884 248.394C301.109 253.594 316.507 265.414 316.507 265.414L326.978 246.03Z" fill="#2F2E41"/>
<path d="M318.805 240.67C325.222 240.67 330.424 235.471 330.424 229.057C330.424 222.644 325.222 217.445 318.805 217.445C312.388 217.445 307.186 222.644 307.186 229.057C307.186 235.471 312.388 240.67 318.805 240.67Z" fill="#A0616A"/>
<path d="M309.82 212.756C310.595 211.442 311.718 210.367 313.066 209.65C314.413 208.934 315.933 208.603 317.456 208.696C319.05 208.895 320.605 209.33 322.071 209.987L329.667 212.948C331.632 213.714 333.785 214.653 334.638 216.581C335.43 218.371 334.839 220.438 334.241 222.302L331.399 231.16C331.084 229.155 330.544 227.192 329.789 225.309C329.021 223.412 327.634 221.831 325.852 220.823C323.879 219.812 321.554 219.833 319.339 219.939C316.202 220.09 312.791 220.489 310.563 222.7C309.379 223.956 308.577 225.522 308.249 227.215C307.927 228.9 307.764 230.611 307.764 232.326C306.478 230.116 305.394 227.794 304.527 225.389C303.813 223.598 303.407 221.7 303.324 219.774C303.249 217.832 303.894 215.93 305.135 214.433C305.765 213.702 306.587 213.161 307.508 212.871C308.429 212.581 309.413 212.554 310.348 212.793L309.82 212.756Z" fill="#2F2E41"/>
<path d="M346.549 256.099C346.44 255.707 346.217 255.356 345.909 255.089C345.601 254.823 345.221 254.654 344.817 254.602C344.79 254.584 344.762 254.567 344.733 254.552L327.387 244.837C326.892 244.559 326.309 244.484 325.759 244.625C325.209 244.767 324.735 245.114 324.435 245.596L319.691 253.273L312.546 246.132L312.432 246.018C312.065 245.651 311.581 245.426 311.065 245.381C310.548 245.336 310.032 245.474 309.607 245.771L295.351 255.748C295.326 255.748 295.301 255.756 295.276 255.756C294.594 255.87 293.971 256.213 293.51 256.728C293.049 257.244 292.777 257.901 292.741 258.591L292.372 266.025H349.302L346.549 256.099Z" fill="#E5B63F"/>
<path d="M378.323 264.87H367.339C367.339 264.564 367.217 264.27 367 264.053C366.784 263.836 366.49 263.715 366.183 263.715H362.714C362.408 263.715 362.114 263.836 361.897 264.053C361.68 264.27 361.558 264.564 361.558 264.87H358.09C358.09 264.564 357.968 264.27 357.751 264.053C357.534 263.836 357.24 263.715 356.933 263.715H353.465C353.158 263.715 352.864 263.836 352.647 264.053C352.431 264.27 352.309 264.564 352.309 264.87H348.84C348.84 264.564 348.718 264.27 348.502 264.053C348.285 263.836 347.991 263.715 347.684 263.715H344.216C343.909 263.715 343.615 263.836 343.398 264.053C343.181 264.27 343.059 264.564 343.059 264.87H339.591C339.591 264.564 339.469 264.27 339.252 264.053C339.035 263.836 338.741 263.715 338.435 263.715H334.966C334.66 263.715 334.365 263.836 334.149 264.053C333.932 264.27 333.81 264.564 333.81 264.87H330.341C330.341 264.564 330.22 264.27 330.003 264.053C329.786 263.836 329.492 263.715 329.185 263.715H325.717C325.41 263.715 325.116 263.836 324.899 264.053C324.682 264.27 324.561 264.564 324.561 264.87H321.092C321.092 264.564 320.97 264.27 320.753 264.053C320.537 263.836 320.243 263.715 319.936 263.715H316.467C316.161 263.715 315.867 263.836 315.65 264.053C315.433 264.27 315.311 264.564 315.311 264.87H311.843C311.843 264.564 311.721 264.27 311.504 264.053C311.287 263.836 310.993 263.715 310.687 263.715H307.218C306.911 263.715 306.617 263.836 306.4 264.053C306.184 264.27 306.062 264.564 306.062 264.87H302.593C302.593 264.564 302.471 264.27 302.255 264.053C302.038 263.836 301.744 263.715 301.437 263.715H297.969C297.662 263.715 297.368 263.836 297.151 264.053C296.934 264.27 296.812 264.564 296.812 264.87H293.344C293.344 264.564 293.222 264.27 293.005 264.053C292.788 263.836 292.494 263.715 292.188 263.715H288.719C288.413 263.715 288.118 263.836 287.902 264.053C287.685 264.27 287.563 264.564 287.563 264.87H284.094C284.094 264.564 283.973 264.27 283.756 264.053C283.539 263.836 283.245 263.715 282.938 263.715H279.47C279.163 263.715 278.869 263.836 278.652 264.053C278.435 264.27 278.314 264.564 278.314 264.87H274.845C274.845 264.564 274.723 264.27 274.506 264.053C274.29 263.836 273.996 263.715 273.689 263.715H270.22C269.914 263.715 269.62 263.836 269.403 264.053C269.186 264.27 269.064 264.564 269.064 264.87H258.081C257.162 264.872 256.281 265.237 255.631 265.887C254.982 266.537 254.617 267.418 254.617 268.337C254.617 269.255 254.982 270.136 255.631 270.786C256.281 271.436 257.162 271.802 258.081 271.803H378.323C379.243 271.803 380.125 271.438 380.775 270.788C381.426 270.138 381.791 269.256 381.791 268.337C381.791 267.417 381.426 266.536 380.775 265.885C380.125 265.235 379.243 264.87 378.323 264.87Z" fill="#3F3D56"/>
<path d="M240.201 244.739V267.757H182.499C180.954 267.81 179.413 267.552 177.969 266.998C176.524 266.444 175.207 265.605 174.094 264.531C172.981 263.457 172.097 262.17 171.492 260.747C170.888 259.324 170.576 257.794 170.576 256.248C170.576 254.702 170.888 253.172 171.492 251.749C172.097 250.326 172.981 249.039 174.094 247.965C175.207 246.891 176.524 246.052 177.969 245.498C179.413 244.944 180.954 244.686 182.499 244.739H240.201Z" fill="#5D90BE"/>
<path d="M241.618 267.58C241.618 267.814 241.524 268.039 241.358 268.205C241.192 268.371 240.967 268.465 240.732 268.465H181.472C178.253 268.465 175.167 267.187 172.891 264.913C170.615 262.638 169.336 259.553 169.336 256.337C169.336 253.12 170.615 250.035 172.891 247.761C175.167 245.486 178.253 244.208 181.472 244.208H240.732C240.967 244.208 241.192 244.302 241.358 244.468C241.525 244.634 241.618 244.859 241.618 245.094C241.618 245.328 241.525 245.553 241.358 245.72C241.192 245.886 240.967 245.979 240.732 245.979H181.472C178.725 245.981 176.091 247.074 174.149 249.016C172.208 250.958 171.117 253.591 171.117 256.337C171.117 259.082 172.208 261.715 174.149 263.657C176.091 265.599 178.725 266.692 181.472 266.694H240.732C240.967 266.694 241.192 266.788 241.358 266.954C241.524 267.12 241.618 267.345 241.618 267.58Z" fill="#E5B63F"/>
<path d="M240.201 250.051H178.194C178.171 250.051 178.148 250.047 178.126 250.038C178.104 250.029 178.085 250.016 178.068 250C178.052 249.983 178.038 249.964 178.029 249.942C178.02 249.92 178.016 249.897 178.016 249.874C178.016 249.851 178.02 249.827 178.029 249.806C178.038 249.784 178.052 249.765 178.068 249.748C178.085 249.732 178.104 249.719 178.126 249.71C178.148 249.701 178.171 249.697 178.194 249.697H240.201C240.247 249.697 240.292 249.716 240.325 249.749C240.358 249.782 240.377 249.827 240.377 249.874C240.377 249.921 240.358 249.966 240.325 249.999C240.292 250.032 240.247 250.051 240.201 250.051Z" fill="#8DC1F0"/>
<path d="M240.201 254.3H178.194C178.171 254.301 178.148 254.296 178.126 254.287C178.104 254.278 178.085 254.265 178.068 254.249C178.052 254.233 178.038 254.213 178.029 254.191C178.02 254.17 178.016 254.147 178.016 254.123C178.016 254.1 178.02 254.077 178.029 254.055C178.038 254.034 178.052 254.014 178.068 253.998C178.085 253.981 178.104 253.968 178.126 253.959C178.148 253.951 178.171 253.946 178.194 253.946H240.201C240.247 253.947 240.292 253.965 240.325 253.999C240.358 254.032 240.377 254.077 240.377 254.123C240.377 254.17 240.358 254.215 240.325 254.248C240.292 254.281 240.247 254.3 240.201 254.3Z" fill="#8DC1F0"/>
<path d="M240.201 258.55H178.194C178.171 258.55 178.148 258.545 178.126 258.537C178.104 258.528 178.085 258.515 178.068 258.498C178.052 258.482 178.038 258.462 178.029 258.441C178.02 258.419 178.016 258.396 178.016 258.373C178.016 258.349 178.02 258.326 178.029 258.305C178.038 258.283 178.052 258.263 178.068 258.247C178.085 258.231 178.104 258.218 178.126 258.209C178.148 258.2 178.171 258.195 178.194 258.196H240.201C240.247 258.196 240.292 258.215 240.325 258.248C240.358 258.281 240.377 258.326 240.377 258.373C240.377 258.419 240.358 258.464 240.325 258.497C240.292 258.531 240.247 258.549 240.201 258.55Z" fill="#8DC1F0"/>
<path d="M240.201 262.799H178.194C178.171 262.799 178.148 262.795 178.126 262.786C178.104 262.777 178.085 262.764 178.068 262.748C178.052 262.731 178.038 262.712 178.029 262.69C178.02 262.668 178.016 262.645 178.016 262.622C178.016 262.599 178.02 262.575 178.029 262.554C178.038 262.532 178.052 262.513 178.068 262.496C178.085 262.48 178.104 262.467 178.126 262.458C178.148 262.449 178.171 262.445 178.194 262.445H240.201C240.247 262.445 240.292 262.464 240.325 262.497C240.358 262.53 240.377 262.575 240.377 262.622C240.377 262.669 240.358 262.714 240.325 262.747C240.292 262.78 240.247 262.799 240.201 262.799Z" fill="#8DC1F0"/>
<path d="M229.323 220.489V243.507H171.622C170.076 243.56 168.535 243.302 167.091 242.748C165.647 242.194 164.33 241.355 163.217 240.281C162.104 239.207 161.219 237.92 160.615 236.497C160.011 235.074 159.699 233.544 159.699 231.998C159.699 230.452 160.011 228.922 160.615 227.499C161.219 226.076 162.104 224.789 163.217 223.715C164.33 222.641 165.647 221.802 167.091 221.248C168.535 220.694 170.076 220.436 171.622 220.489H229.323Z" fill="#5D90BE"/>
<path d="M230.741 243.33C230.741 243.564 230.647 243.789 230.481 243.955C230.315 244.121 230.09 244.215 229.855 244.215H170.595C169.001 244.215 167.423 243.901 165.951 243.292C164.478 242.682 163.14 241.789 162.013 240.663C160.887 239.536 159.993 238.199 159.383 236.728C158.773 235.256 158.459 233.679 158.459 232.087C158.459 230.494 158.773 228.917 159.383 227.445C159.993 225.974 160.887 224.637 162.013 223.511C163.14 222.384 164.478 221.491 165.951 220.881C167.423 220.272 169.001 219.958 170.595 219.958H229.855C230.09 219.958 230.315 220.052 230.481 220.218C230.647 220.384 230.741 220.609 230.741 220.844C230.741 221.078 230.647 221.303 230.481 221.47C230.315 221.636 230.09 221.729 229.855 221.729H170.595C167.847 221.731 165.214 222.824 163.272 224.766C161.331 226.708 160.24 229.341 160.24 232.087C160.24 234.832 161.331 237.465 163.272 239.407C165.214 241.349 167.847 242.442 170.595 242.444H229.855C230.09 242.444 230.315 242.538 230.481 242.704C230.647 242.87 230.741 243.095 230.741 243.33Z" fill="#3F3D56"/>
<path d="M229.323 225.801H167.317C167.294 225.801 167.271 225.797 167.249 225.788C167.227 225.779 167.208 225.766 167.191 225.75C167.174 225.733 167.161 225.714 167.152 225.692C167.143 225.67 167.139 225.647 167.139 225.624C167.139 225.601 167.143 225.578 167.152 225.556C167.161 225.534 167.174 225.515 167.191 225.498C167.208 225.482 167.227 225.469 167.249 225.46C167.271 225.451 167.294 225.447 167.317 225.447H229.323C229.37 225.447 229.415 225.466 229.448 225.499C229.481 225.532 229.499 225.577 229.499 225.624C229.499 225.671 229.481 225.716 229.448 225.749C229.415 225.782 229.37 225.801 229.323 225.801Z" fill="#8DC1F0"/>
<path d="M229.323 230.05H167.317C167.294 230.051 167.271 230.046 167.249 230.037C167.227 230.028 167.208 230.015 167.191 229.999C167.174 229.983 167.161 229.963 167.152 229.941C167.143 229.92 167.139 229.897 167.139 229.873C167.139 229.85 167.143 229.827 167.152 229.805C167.161 229.784 167.174 229.764 167.191 229.748C167.208 229.731 167.227 229.718 167.249 229.709C167.271 229.701 167.294 229.696 167.317 229.696H229.323C229.37 229.697 229.415 229.715 229.448 229.749C229.481 229.782 229.499 229.827 229.499 229.873C229.499 229.92 229.481 229.965 229.448 229.998C229.415 230.031 229.37 230.05 229.323 230.05Z" fill="#8DC1F0"/>
<path d="M229.323 234.3H167.317C167.294 234.3 167.271 234.295 167.249 234.287C167.227 234.278 167.208 234.265 167.191 234.248C167.174 234.232 167.161 234.212 167.152 234.191C167.143 234.169 167.139 234.146 167.139 234.123C167.139 234.099 167.143 234.076 167.152 234.055C167.161 234.033 167.174 234.013 167.191 233.997C167.208 233.981 167.227 233.968 167.249 233.959C167.271 233.95 167.294 233.945 167.317 233.946H229.323C229.37 233.946 229.415 233.965 229.448 233.998C229.481 234.031 229.499 234.076 229.499 234.123C229.499 234.169 229.481 234.214 229.448 234.247C229.415 234.281 229.37 234.299 229.323 234.3Z" fill="#8DC1F0"/>
<path d="M229.323 238.549H167.317C167.294 238.549 167.271 238.545 167.249 238.536C167.227 238.527 167.208 238.514 167.191 238.498C167.174 238.481 167.161 238.462 167.152 238.44C167.143 238.418 167.139 238.395 167.139 238.372C167.139 238.349 167.143 238.325 167.152 238.304C167.161 238.282 167.174 238.263 167.191 238.246C167.208 238.23 167.227 238.217 167.249 238.208C167.271 238.199 167.294 238.195 167.317 238.195H229.323C229.37 238.195 229.415 238.214 229.448 238.247C229.481 238.28 229.499 238.325 229.499 238.372C229.499 238.419 229.481 238.464 229.448 238.497C229.415 238.53 229.37 238.549 229.323 238.549Z" fill="#8DC1F0"/>
<path d="M296.447 349.57V329.501C296.447 328.614 296.095 327.763 295.467 327.136C294.839 326.509 293.988 326.156 293.1 326.156H216.96C216.073 326.156 215.221 326.509 214.594 327.136C213.966 327.763 213.613 328.614 213.613 329.501V349.57H296.447Z" fill="#8DC1F0"/>
<path d="M296.447 357.096H213.613V383.018H296.447V357.096Z" fill="#8DC1F0"/>
<path d="M213.613 390.544V410.613C213.613 411.5 213.966 412.351 214.594 412.978C215.221 413.606 216.073 413.958 216.96 413.958H293.1C293.988 413.958 294.839 413.606 295.467 412.978C296.095 412.351 296.447 411.5 296.447 410.613V390.544H213.613Z" fill="#8DC1F0"/>
<path d="M254.612 341.208C255.998 341.208 257.122 340.085 257.122 338.7C257.122 337.314 255.998 336.191 254.612 336.191C253.226 336.191 252.102 337.314 252.102 338.7C252.102 340.085 253.226 341.208 254.612 341.208Z" fill="#DBEEFF"/>
<path d="M254.612 374.656C255.998 374.656 257.122 373.533 257.122 372.148C257.122 370.762 255.998 369.639 254.612 369.639C253.226 369.639 252.102 370.762 252.102 372.148C252.102 373.533 253.226 374.656 254.612 374.656Z" fill="#DBEEFF"/>
<path d="M254.747 407.396C256.133 407.396 257.257 406.273 257.257 404.888C257.257 403.502 256.133 402.379 254.747 402.379C253.36 402.379 252.236 403.502 252.236 404.888C252.236 406.273 253.36 407.396 254.747 407.396Z" fill="#DBEEFF"/>
<path d="M287.056 303.274V326.291H229.355C227.809 326.345 226.268 326.087 224.824 325.533C223.38 324.979 222.062 324.14 220.95 323.066C219.837 321.992 218.952 320.705 218.348 319.282C217.743 317.859 217.432 316.328 217.432 314.782C217.432 313.236 217.743 311.706 218.348 310.283C218.952 308.86 219.837 307.573 220.95 306.499C222.062 305.425 223.38 304.586 224.824 304.032C226.268 303.478 227.809 303.22 229.355 303.274H287.056Z" fill="#5D90BE"/>
<path d="M288.473 326.114C288.473 326.349 288.38 326.574 288.214 326.74C288.048 326.906 287.822 326.999 287.588 326.999H228.327C226.733 327.001 225.154 326.688 223.68 326.079C222.207 325.47 220.868 324.577 219.74 323.451C218.612 322.324 217.717 320.987 217.106 319.515C216.496 318.042 216.182 316.464 216.182 314.871C216.182 313.277 216.496 311.699 217.106 310.227C217.717 308.755 218.612 307.418 219.74 306.291C220.868 305.165 222.207 304.272 223.68 303.663C225.154 303.054 226.733 302.741 228.327 302.743H287.588C287.822 302.743 288.048 302.836 288.214 303.002C288.38 303.168 288.473 303.393 288.473 303.628C288.473 303.863 288.38 304.088 288.214 304.254C288.048 304.42 287.822 304.513 287.588 304.513H228.327C225.58 304.516 222.946 305.608 221.005 307.55C219.063 309.492 217.973 312.126 217.973 314.871C217.973 317.616 219.063 320.249 221.005 322.192C222.946 324.134 225.58 325.226 228.327 325.229H287.588C287.822 325.229 288.048 325.322 288.214 325.488C288.38 325.654 288.473 325.879 288.473 326.114Z" fill="#3F3D56"/>
<path d="M287.056 308.585H225.05C225.026 308.586 225.003 308.581 224.982 308.572C224.96 308.564 224.94 308.551 224.924 308.534C224.907 308.518 224.894 308.498 224.885 308.476C224.876 308.455 224.871 308.432 224.871 308.408C224.871 308.385 224.876 308.362 224.885 308.34C224.894 308.319 224.907 308.299 224.924 308.283C224.94 308.266 224.96 308.253 224.982 308.244C225.003 308.236 225.026 308.231 225.05 308.231H287.056C287.103 308.232 287.148 308.251 287.181 308.284C287.213 308.317 287.232 308.362 287.232 308.408C287.232 308.455 287.213 308.5 287.181 308.533C287.148 308.566 287.103 308.585 287.056 308.585Z" fill="#8DC1F0"/>
<path d="M287.056 312.835H225.05C225.026 312.835 225.003 312.831 224.982 312.822C224.96 312.813 224.94 312.8 224.924 312.783C224.907 312.767 224.894 312.747 224.885 312.726C224.876 312.704 224.871 312.681 224.871 312.658C224.871 312.634 224.876 312.611 224.885 312.59C224.894 312.568 224.907 312.549 224.924 312.532C224.94 312.516 224.96 312.503 224.982 312.494C225.003 312.485 225.026 312.481 225.05 312.481H287.056C287.103 312.481 287.148 312.5 287.181 312.533C287.213 312.566 287.232 312.611 287.232 312.658C287.232 312.705 287.213 312.749 287.181 312.783C287.148 312.816 287.103 312.834 287.056 312.835Z" fill="#8DC1F0"/>
<path d="M287.056 317.084H225.05C225.026 317.084 225.003 317.08 224.982 317.071C224.96 317.062 224.94 317.049 224.924 317.033C224.907 317.016 224.894 316.997 224.885 316.975C224.876 316.954 224.871 316.93 224.871 316.907C224.871 316.884 224.876 316.861 224.885 316.839C224.894 316.818 224.907 316.798 224.924 316.781C224.94 316.765 224.96 316.752 224.982 316.743C225.003 316.734 225.026 316.73 225.05 316.73H287.056C287.103 316.73 287.148 316.749 287.181 316.782C287.213 316.815 287.232 316.86 287.232 316.907C287.232 316.954 287.213 316.999 287.181 317.032C287.148 317.065 287.103 317.084 287.056 317.084Z" fill="#8DC1F0"/>
<path d="M287.056 321.333H225.05C225.026 321.334 225.003 321.329 224.982 321.32C224.96 321.311 224.94 321.298 224.924 321.282C224.907 321.266 224.894 321.246 224.885 321.224C224.876 321.203 224.871 321.18 224.871 321.156C224.871 321.133 224.876 321.11 224.885 321.088C224.894 321.067 224.907 321.047 224.924 321.031C224.94 321.014 224.96 321.001 224.982 320.992C225.003 320.984 225.026 320.979 225.05 320.979H287.056C287.103 320.98 287.148 320.998 287.181 321.032C287.213 321.065 287.232 321.11 287.232 321.156C287.232 321.203 287.213 321.248 287.181 321.281C287.148 321.314 287.103 321.333 287.056 321.333Z" fill="#8DC1F0"/>
<path d="M209.269 153.044V6.28947C209.271 4.62199 209.934 3.02334 211.114 1.84424C212.294 0.665152 213.893 0.00189671 215.562 0H331.637C333.305 0.00190776 334.905 0.665167 336.085 1.84426C337.264 3.02335 337.928 4.62199 337.93 6.28947V153.044C337.928 154.711 337.264 156.31 336.085 157.489C334.905 158.668 333.305 159.331 331.637 159.333H215.562C213.893 159.331 212.294 158.668 211.114 157.489C209.934 156.31 209.271 154.711 209.269 153.044ZM215.562 1.39766C214.264 1.39911 213.02 1.91497 212.102 2.83205C211.185 3.74912 210.669 4.99253 210.667 6.28947V153.044C210.669 154.341 211.185 155.584 212.102 156.501C213.02 157.418 214.264 157.934 215.562 157.935H331.637C332.934 157.934 334.179 157.418 335.096 156.501C336.014 155.584 336.53 154.341 336.531 153.044V6.28947C336.53 4.99253 336.014 3.74912 335.096 2.83205C334.179 1.91497 332.934 1.39912 331.637 1.39766H215.562Z" fill="#E0EFFB"/>
<path d="M280.108 67.3963V37.263C280.109 36.4293 280.441 35.6299 281.031 35.0404C281.621 34.4508 282.421 34.1192 283.255 34.1183H308.805C309.64 34.1192 310.44 34.4508 311.029 35.0404C311.619 35.6299 311.951 36.4293 311.952 37.263V67.3963C311.951 68.23 311.619 69.0294 311.029 69.6189C310.44 70.2085 309.64 70.5401 308.805 70.541H283.255C282.421 70.5401 281.621 70.2085 281.031 69.6189C280.441 69.0294 280.109 68.23 280.108 67.3963Z" fill="#E5B63F"/>
<path d="M230.462 81.3729V51.2397C230.463 50.406 230.795 49.6066 231.385 49.017C231.974 48.4275 232.774 48.0959 233.609 48.095H259.159C259.993 48.0959 260.793 48.4275 261.383 49.017C261.973 49.6066 262.305 50.406 262.306 51.2397V81.373C262.305 82.2067 261.973 83.0061 261.383 83.5956C260.793 84.1852 259.993 84.5168 259.159 84.5177H233.609C232.774 84.5168 231.974 84.1851 231.385 83.5956C230.795 83.006 230.463 82.2067 230.462 81.3729Z" fill="#8DC1F0"/>
<path d="M270.319 124.001V93.8682C270.32 93.0345 270.652 92.2351 271.242 91.6456C271.831 91.056 272.631 90.7244 273.466 90.7235H299.016C299.85 90.7244 300.65 91.056 301.24 91.6456C301.83 92.2351 302.162 93.0345 302.163 93.8682V124.001C302.162 124.835 301.83 125.635 301.24 126.224C300.65 126.814 299.85 127.145 299.016 127.146H273.466C272.631 127.145 271.831 126.814 271.242 126.224C270.652 125.635 270.32 124.835 270.319 124.001Z" fill="#FF6584"/>
<path d="M423.007 261.769H396.718C396.468 261.768 396.222 261.826 395.998 261.936L389.363 265.256C389.145 265.348 388.959 265.503 388.828 265.701C388.697 265.899 388.627 266.131 388.627 266.368C388.627 266.605 388.697 266.837 388.828 267.034C388.959 267.232 389.145 267.387 389.363 267.48L395.998 270.8C396.222 270.91 396.468 270.967 396.718 270.967H423.007C423.369 270.988 423.725 270.865 423.998 270.626C424.27 270.386 424.438 270.049 424.463 269.687V263.048C424.438 262.686 424.27 262.349 423.998 262.11C423.725 261.87 423.369 261.748 423.007 261.769Z" fill="#3F3D56"/>
<path d="M424.463 263.048V269.687C424.438 270.049 424.27 270.386 423.998 270.626C423.725 270.865 423.369 270.988 423.007 270.967H417.77V261.769H423.007C423.369 261.748 423.725 261.87 423.998 262.11C424.27 262.349 424.438 262.686 424.463 263.048Z" fill="#E5B63F"/>
<path d="M422.809 212.098C424 211.584 425.286 211.328 426.583 211.346C427.88 211.363 429.158 211.655 430.334 212.201C431.511 212.746 432.558 213.535 433.409 214.513C434.259 215.492 434.893 216.639 435.268 217.88C435.385 218.273 435.475 218.674 435.536 219.08L472.299 237.299L480.807 231.664L491.393 243.844L478.402 254.388C476.84 255.647 474.914 256.368 472.909 256.445C470.904 256.522 468.928 255.951 467.273 254.817L429.974 229.039C429.696 229.156 429.413 229.26 429.124 229.348C427.883 229.723 426.576 229.832 425.29 229.668C424.003 229.503 422.766 229.068 421.659 228.392C420.552 227.717 419.601 226.815 418.867 225.746C418.133 224.677 417.634 223.465 417.402 222.19C417.333 221.819 417.287 221.445 417.266 221.069C417.162 219.187 417.638 217.318 418.629 215.714C419.62 214.11 421.079 212.848 422.809 212.098Z" fill="#FFB8B8"/>
<path d="M499.38 324.274H459.21C459.21 325.428 417.81 326.364 417.81 326.364C417.16 326.853 416.568 327.414 416.045 328.037C414.472 329.911 413.613 332.28 413.618 334.726V336.399C413.619 339.171 414.721 341.829 416.682 343.789C418.643 345.749 421.303 346.85 424.077 346.851H499.38C502.153 346.849 504.812 345.747 506.773 343.787C508.734 341.828 509.836 339.17 509.839 336.399V334.726C509.835 331.955 508.732 329.299 506.771 327.34C504.811 325.38 502.153 324.278 499.38 324.274Z" fill="#3F3D56"/>
<path d="M455.684 416.677H466.561V346.436H455.684V416.677Z" fill="#3F3D56"/>
<path d="M424.726 416.296C424.726 417.47 441.209 416.75 461.541 416.75C481.874 416.75 498.356 417.47 498.356 416.296C498.356 415.121 481.874 405.807 461.541 405.807C441.209 405.807 424.726 415.121 424.726 416.296Z" fill="#3F3D56"/>
<path d="M434.545 408.063L424.288 408.062L419.408 381.473L434.547 381.474L434.545 408.063Z" fill="#FFB8B8"/>
<path d="M437.162 418L404.086 417.999V417.581C404.086 415.891 404.419 414.218 405.066 412.657C405.713 411.096 406.661 409.678 407.857 408.483C409.052 407.288 410.472 406.34 412.034 405.694C413.595 405.047 415.269 404.715 416.96 404.715H416.961L437.162 404.715L437.162 418Z" fill="#2F2E41"/>
<path d="M419.203 391.574L398.753 345.744C397.046 341.881 396.857 337.517 398.225 333.522C399.592 329.526 402.415 326.192 406.132 324.183L450.489 300.412L470.729 298.691L489.4 296.995L489.535 297.223C489.707 297.513 493.721 304.443 491.008 312.042C488.95 317.805 483.596 322.307 475.095 325.423C455.253 332.694 432.332 338.908 423.398 341.242C423.003 341.343 422.634 341.526 422.315 341.78C421.996 342.033 421.735 342.352 421.548 342.714C421.36 343.071 421.249 343.464 421.221 343.867C421.192 344.269 421.248 344.674 421.383 345.054L440.382 387.713C440.581 388.254 440.652 388.833 440.591 389.406C440.53 389.979 440.338 390.53 440.03 391.018C439.722 391.505 439.306 391.915 438.815 392.216C438.323 392.517 437.769 392.701 437.195 392.754L422.999 393.787C422.878 393.799 422.758 393.805 422.639 393.805C421.912 393.804 421.2 393.594 420.591 393.198C419.981 392.802 419.499 392.238 419.203 391.574Z" fill="#2F2E41"/>
<path d="M439.566 408.063L429.308 408.062L424.428 381.473L439.567 381.474L439.566 408.063Z" fill="#FFB8B8"/>
<path d="M442.182 418L409.106 417.999V417.581C409.106 415.891 409.439 414.218 410.086 412.657C410.733 411.096 411.682 409.678 412.877 408.483C414.073 407.288 415.492 406.34 417.054 405.694C418.616 405.047 420.29 404.715 421.98 404.715H421.981L442.182 404.715L442.182 418Z" fill="#2F2E41"/>
<path d="M425.06 394.083L404.61 348.253C402.903 344.39 402.714 340.026 404.082 336.03C405.449 332.035 408.272 328.7 411.989 326.692L456.346 302.92L476.586 301.2L495.257 299.504L495.392 299.731C495.564 300.022 499.578 306.952 496.865 314.55C494.807 320.314 489.453 324.816 480.952 327.931C461.11 335.202 438.188 341.417 429.255 343.751C428.86 343.852 428.491 344.035 428.172 344.288C427.853 344.542 427.592 344.86 427.405 345.222C427.217 345.58 427.106 345.972 427.077 346.375C427.049 346.778 427.105 347.182 427.24 347.563L446.239 390.221C446.437 390.762 446.509 391.342 446.448 391.915C446.387 392.488 446.195 393.039 445.887 393.526C445.579 394.013 445.163 394.423 444.672 394.724C444.18 395.026 443.626 395.21 443.052 395.263L428.856 396.296C428.735 396.308 428.615 396.313 428.496 396.313C427.769 396.313 427.057 396.102 426.448 395.706C425.838 395.311 425.356 394.747 425.06 394.083Z" fill="#2F2E41"/>
<path d="M414.867 254.076C406.274 242.653 399.481 229.982 394.723 216.504C394.448 215.698 394.467 214.82 394.779 214.027C395.09 213.234 395.673 212.577 396.423 212.173L425.83 196.426C426.305 196.169 426.833 196.025 427.374 196.003C427.914 195.981 428.452 196.082 428.947 196.3C429.451 196.519 429.898 196.85 430.255 197.268C430.612 197.685 430.869 198.179 431.006 198.711C434.429 211.699 440.862 223.699 449.787 233.741C450.154 234.149 450.423 234.636 450.574 235.165C450.724 235.693 450.752 236.249 450.655 236.79C450.562 237.322 450.349 237.826 450.031 238.263C449.714 238.701 449.301 239.06 448.823 239.314L419.417 255.061C418.665 255.462 417.795 255.583 416.962 255.402C416.128 255.222 415.386 254.752 414.867 254.076Z" fill="#8DC1F0"/>
<path d="M416.874 252.569C417.032 252.767 417.254 252.903 417.502 252.954C417.75 253.005 418.008 252.968 418.231 252.85L447.638 237.102C447.78 237.028 447.904 236.921 447.999 236.791C448.094 236.661 448.157 236.511 448.184 236.352C448.214 236.185 448.206 236.012 448.159 235.849C448.111 235.685 448.027 235.534 447.912 235.409C438.725 225.071 432.101 212.718 428.578 199.348C428.537 199.182 428.459 199.029 428.349 198.899C428.239 198.769 428.1 198.666 427.944 198.599C427.796 198.533 427.636 198.502 427.475 198.509C427.314 198.516 427.156 198.56 427.015 198.637L397.609 214.384C397.386 214.505 397.212 214.699 397.118 214.934C397.023 215.168 397.013 215.429 397.09 215.67C401.763 228.906 408.434 241.35 416.874 252.569Z" fill="#DBEEFF"/>
<path d="M512.559 249.876L489.529 258.622L483.907 243.013C483.16 240.94 483.171 238.671 483.936 236.605C484.702 234.539 486.174 232.811 488.092 231.725C490.032 230.626 492.301 230.257 494.489 230.684C496.678 231.111 498.641 232.306 500.025 234.053L512.559 249.876Z" fill="#E5B63F"/>
<path d="M453.982 311.722C453.497 311.379 453.091 310.937 452.79 310.426C452.49 309.914 452.302 309.344 452.239 308.754C449.289 281.235 451.343 259.699 458.519 242.916C459.783 240.021 461.686 237.45 464.087 235.396C466.488 233.343 469.324 231.86 472.38 231.058L490.997 230.119L491.093 230.166C495.294 232.222 498.72 235.577 500.863 239.732C503.006 243.888 503.752 248.623 502.99 253.235C497.003 269.009 491.989 285.432 495.813 298.68C495.973 299.234 496.02 299.814 495.95 300.387C495.881 300.959 495.696 301.512 495.408 302.011C495.128 302.494 494.753 302.914 494.304 303.246C493.856 303.578 493.344 303.815 492.801 303.942L457.343 312.372C456.768 312.508 456.172 312.521 455.592 312.409C455.013 312.297 454.464 312.062 453.982 311.722Z" fill="#E5B63F"/>
<path d="M484.784 223.17C496.133 223.17 505.334 213.975 505.334 202.632C505.334 191.289 496.133 182.094 484.784 182.094C473.434 182.094 464.233 191.289 464.233 202.632C464.233 213.975 473.434 223.17 484.784 223.17Z" fill="#FFB8B8"/>
<path d="M427.76 218.899L411.744 225.964C411.135 226.232 410.444 226.248 409.824 226.008C409.203 225.767 408.704 225.291 408.434 224.683L408.038 223.786C407.77 223.177 407.754 222.487 407.995 221.867C408.235 221.246 408.712 220.747 409.321 220.478L425.337 213.412C425.946 213.144 426.636 213.129 427.257 213.369C427.877 213.609 428.377 214.086 428.647 214.694L429.043 215.591C429.311 216.2 429.326 216.89 429.086 217.51C428.845 218.13 428.369 218.63 427.76 218.899Z" fill="#8DC1F0"/>
<path d="M433.617 229.77L417.601 236.835C416.992 237.103 416.301 237.119 415.681 236.878C415.06 236.638 414.56 236.161 414.291 235.553L413.895 234.656C413.627 234.048 413.611 233.358 413.852 232.737C414.092 232.117 414.569 231.618 415.178 231.348L431.193 224.283C431.803 224.015 432.493 223.999 433.114 224.24C433.734 224.48 434.234 224.957 434.503 225.565L434.9 226.462C435.168 227.07 435.183 227.76 434.943 228.381C434.702 229.001 434.225 229.5 433.617 229.77Z" fill="#8DC1F0"/>
<path d="M445.968 272.23L410.262 244.078C409.978 244.178 409.689 244.263 409.395 244.334C408.135 244.628 406.827 244.655 405.556 244.411C404.285 244.167 403.079 243.659 402.017 242.919C400.949 242.179 400.05 241.219 399.383 240.104C398.715 238.989 398.294 237.744 398.146 236.453C397.907 234.388 398.372 232.304 399.467 230.537C400.562 228.771 402.222 227.426 404.178 226.721C405.399 226.283 406.698 226.108 407.992 226.207C409.285 226.307 410.542 226.678 411.682 227.296C412.821 227.915 413.817 228.768 414.604 229.798C415.391 230.828 415.952 232.013 416.249 233.274C416.341 233.674 416.405 234.08 416.44 234.489L451.985 254.982L460.83 249.892L470.629 262.713L456.895 272.496C455.287 273.632 453.356 274.219 451.387 274.171C449.419 274.123 447.519 273.443 445.968 272.23Z" fill="#FFB8B8"/>
<path d="M474.986 266.706L454.613 252.86L464.188 239.308C465.459 237.508 467.326 236.216 469.458 235.659C471.591 235.102 473.852 235.316 475.842 236.264C477.854 237.223 479.458 238.87 480.362 240.906C481.267 242.943 481.413 245.236 480.774 247.371L474.986 266.706Z" fill="#E5B63F"/>
<path d="M477.249 199.573C471.967 203.186 465.032 206.9 459.638 203.052C456.095 200.526 454.979 195.848 456.416 191.743C458.999 184.36 466.096 181.11 472.883 178.619C481.705 175.38 491.312 172.804 500.419 175.123C509.527 177.443 517.577 186.255 515.932 195.504C514.61 202.941 507.591 209.13 508.587 216.618C509.59 224.154 518.07 228.121 525.557 229.467C533.043 230.814 541.421 231.247 546.801 236.621C553.665 243.477 551.951 255.731 545.492 262.97C539.034 270.208 529.288 273.489 519.844 275.72C507.332 278.675 493.798 280.228 481.915 275.324C470.031 270.419 460.783 257.216 464.226 244.836C465.68 239.606 469.105 235.187 472.416 230.884C475.726 226.582 479.079 222.082 480.341 216.803C481.394 212.404 480.615 207.297 477.696 203.997C477.165 203.419 476.831 202.689 476.742 201.909C476.652 201.13 476.812 200.343 477.199 199.66L477.249 199.573Z" fill="#2F2E41"/>
<path d="M91.2613 299.361C85.9659 301.221 80.2803 301.687 74.7524 300.714C69.2244 299.74 64.0404 297.361 59.6998 293.804C48.6453 284.531 45.1793 269.254 42.3592 255.109C39.5788 241.162 36.7984 227.215 34.0179 213.269L51.4813 225.286C64.04 233.928 76.8815 242.847 85.5771 255.365C94.2727 267.883 98.0683 284.971 91.0817 298.516" fill="#E0EFFB"/>
<path d="M89.7685 350.017C91.536 337.15 93.3535 324.117 92.1137 311.112C91.0126 299.562 87.4868 288.281 80.3088 279.032C76.4986 274.131 71.8625 269.933 66.6087 266.625C65.2387 265.76 63.9777 267.93 65.3418 268.791C74.4324 274.533 81.4636 283.011 85.4217 293.004C89.7934 304.117 90.4955 316.231 89.7421 328.036C89.2865 335.175 88.321 342.267 87.348 349.35C87.2713 349.67 87.3192 350.008 87.4819 350.294C87.6446 350.58 87.9101 350.794 88.2246 350.893C88.5455 350.979 88.8876 350.936 89.1766 350.772C89.4656 350.608 89.6783 350.336 89.7685 350.017Z" fill="#5D90BE"/>
<path d="M72.744 327.248C70.4729 330.698 67.3511 333.505 63.6794 335.399C60.0077 337.293 55.9098 338.21 51.7806 338.061C41.1685 337.558 32.3214 330.156 24.3574 323.128L0.801414 302.343L16.3916 301.597C27.6031 301.061 39.1039 300.56 49.7825 304.016C60.4611 307.471 70.3094 315.787 72.2621 326.834" fill="#E0EFFB"/>
<path d="M94.7637 357.413C86.2563 342.369 76.3884 325.649 58.7563 320.305C53.8537 318.824 48.713 318.294 43.611 318.742C42.003 318.881 42.4046 321.358 44.0096 321.22C52.5616 320.51 61.0971 322.767 68.1791 327.61C74.994 332.246 80.3001 338.691 84.7911 345.526C87.5421 349.713 90.0062 354.077 92.4707 358.435C93.2583 359.828 95.5605 358.822 94.7637 357.413Z" fill="#5D90BE"/>
<path d="M108.395 373.249C108.108 369.929 106.916 366.752 104.947 364.063C102.979 361.374 100.31 359.277 97.231 357.999V349.301H82.6348V358.273C79.7075 359.613 77.1882 361.706 75.3338 364.337C73.4794 366.967 72.3563 370.043 72.0788 373.249L68.6466 413.122H111.827L108.395 373.249Z" fill="#5D90BE"/>
</g>
<defs>
<clipPath id="clip0_3_117">
<rect width="579" height="418" fill="white"/>
</clipPath>
</defs>
</svg>
