<svg width="228" height="76" viewBox="0 0 228 76" fill="none" xmlns="http://www.w3.org/2000/svg">
<path d="M43.5147 13.5V11.8457C43.5147 6.17811 37.7838 2.30774 32.5264 4.4248L16.2881 10.9637C10.2317 13.4025 6.26471 19.2766 6.26471 25.8056V40.0031C6.26471 42.8566 9.16689 44.7924 11.8014 43.6961L37.978 32.8039C40.6125 31.7076 43.5147 33.6434 43.5147 36.4969V50.4207C43.5147 57.0859 39.3828 63.0529 33.1437 65.3978L17.0295 71.4542C11.8227 73.4111 6.26471 69.5625 6.26471 64" stroke="url(#paint0_linear_3_25)" stroke-width="6" stroke-linecap="square"/>
<path d="M43.2322 14.5606L37.5754 20.2174C37.3801 20.4127 37.3801 20.7293 37.5754 20.9245L43.2322 26.5814C43.4275 26.7767 43.7441 26.7767 43.9393 26.5814L49.5962 20.9245C49.7914 20.7293 49.7914 20.4127 49.5962 20.2174L43.9393 14.5606C43.7441 14.3653 43.4275 14.3653 43.2322 14.5606Z" stroke="#99F6B1"/>
<path d="M6 61.4852C2.96243 61.4852 0.5 59.0228 0.5 55.9852C0.5 52.9477 2.96243 50.4852 6 50.4852C9.03756 50.4852 11.5 52.9477 11.5 55.9852C11.5 59.0228 9.03756 61.4852 6 61.4852Z" stroke="#CEEF76"/>
<path d="M62.3182 58H52.0909L63.6136 23.0909H76.5682L88.0909 58H77.8636L70.2273 32.7045H69.9545L62.3182 58ZM60.4091 44.2273H79.6364V51.3182H60.4091V44.2273ZM91.3723 30.7273V23.0909H121.713V30.7273H111.213V58H101.872V30.7273H91.3723ZM162.738 40.5455C162.738 44.4318 161.982 47.7102 160.471 50.3807C158.959 53.0398 156.919 55.0568 154.351 56.4318C151.783 57.7955 148.919 58.4773 145.76 58.4773C142.578 58.4773 139.703 57.7898 137.135 56.4148C134.578 55.0284 132.544 53.0057 131.033 50.3466C129.533 47.6761 128.783 44.4091 128.783 40.5455C128.783 36.6591 129.533 33.3864 131.033 30.7273C132.544 28.0568 134.578 26.0398 137.135 24.6761C139.703 23.3011 142.578 22.6136 145.76 22.6136C148.919 22.6136 151.783 23.3011 154.351 24.6761C156.919 26.0398 158.959 28.0568 160.471 30.7273C161.982 33.3864 162.738 36.6591 162.738 40.5455ZM152.988 40.5455C152.988 38.4545 152.709 36.6932 152.152 35.2614C151.607 33.8182 150.794 32.7273 149.715 31.9886C148.647 31.2386 147.328 30.8636 145.76 30.8636C144.192 30.8636 142.868 31.2386 141.789 31.9886C140.721 32.7273 139.908 33.8182 139.351 35.2614C138.806 36.6932 138.533 38.4545 138.533 40.5455C138.533 42.6364 138.806 44.4034 139.351 45.8466C139.908 47.2784 140.721 48.3693 141.789 49.1193C142.868 49.858 144.192 50.2273 145.76 50.2273C147.328 50.2273 148.647 49.858 149.715 49.1193C150.794 48.3693 151.607 47.2784 152.152 45.8466C152.709 44.4034 152.988 42.6364 152.988 40.5455ZM172.403 58V23.0909H187.471C190.062 23.0909 192.329 23.5625 194.272 24.5057C196.215 25.4489 197.726 26.8068 198.806 28.5795C199.885 30.3523 200.425 32.4773 200.425 34.9545C200.425 37.4545 199.868 39.5625 198.755 41.2784C197.653 42.9943 196.101 44.2898 194.101 45.1648C192.113 46.0398 189.789 46.4773 187.13 46.4773H178.13V39.1136H185.221C186.334 39.1136 187.283 38.9773 188.067 38.7045C188.863 38.4205 189.471 37.9716 189.891 37.358C190.323 36.7443 190.539 35.9432 190.539 34.9545C190.539 33.9545 190.323 33.142 189.891 32.517C189.471 31.8807 188.863 31.4148 188.067 31.1193C187.283 30.8125 186.334 30.6591 185.221 30.6591H181.88V58H172.403ZM192.857 41.9773L201.584 58H191.289L182.766 41.9773H192.857ZM219.222 23.0909V58H209.745V23.0909H219.222Z" fill="url(#paint1_linear_3_25)"/>
<defs>
<linearGradient id="paint0_linear_3_25" x1="1.51471" y1="-4.5" x2="43.5147" y2="79.5" gradientUnits="userSpaceOnUse">
<stop stop-color="#43D2FF"/>
<stop offset="0.49" stop-color="#AEFF9D"/>
<stop offset="1" stop-color="#FFD337"/>
</linearGradient>
<linearGradient id="paint1_linear_3_25" x1="51" y1="38.5" x2="228" y2="38.5" gradientUnits="userSpaceOnUse">
<stop stop-color="#84FFCB"/>
<stop offset="1" stop-color="#FFF85C"/>
</linearGradient>
</defs>
</svg>
